<svg width="461" height="76" viewBox="0 0 461 76" fill="none" xmlns="http://www.w3.org/2000/svg">
<path d="M0 2H33C40.6169 2 46.9875 3.67203 51 7C55.0805 10.2601 57 14.4307 57 20C57 23.4638 55.9042 26.2154 54 29C52.0958 31.7167 49.1284 33.7775 46 35C50.2165 36.0188 53.5517 37.9437 56 41C58.4483 44.0563 60 48.3816 60 53C60 59.3843 58.2845 64.0608 54 68C49.7835 71.9392 43.8008 74 37 74H0V2ZM12 12V32H30C34.8966 32 38.6877 31.4942 41 30C43.3123 28.4379 44 25.5996 44 22C44 17.9249 42.4483 15.2904 40 14C37.6197 12.7096 34.4205 12 30 12H12ZM12 41V64H32C36.8966 64 40.2117 62.63 43 61C45.7883 59.37 47 57.2788 47 53C47 50.6229 46.8841 48.5621 46 47C45.1839 45.37 43.6322 43.7471 42 43C40.4358 42.2529 38.7002 42.2717 37 42C35.2998 41.7283 33.3123 41 31 41H12Z" fill="black"/>
<path d="M82 2H116C123.209 2 129.443 3.73995 134 7C138.557 10.1921 141 15.0045 141 22C141 26.3467 140.108 29.8758 138 33C135.892 36.0563 132.808 38.6416 129 40C130.768 40.4075 131.708 41.185 133 42C134.292 42.815 135.32 43.0492 136 44C136.748 44.9508 137.524 46.5058 138 48C138.476 49.4942 138.864 50.8454 139 52C139.204 53.0867 139.864 54.1662 140 56C140.068 56.4754 139.932 57.6416 140 59C140.136 60.3584 140 61.5246 140 62C140.068 62.4075 139.932 62.9133 140 64C140.136 65.0867 140.932 65.5246 141 66C141.068 66.4075 140.864 67.1171 141 68C141.204 68.815 140.864 69.5246 141 70C141.136 70.4075 141.796 71.3887 142 72C142.204 72.5433 142.728 72.5925 143 73C143.272 73.4075 143.66 73.6604 144 74H130C129.796 73.7283 129.204 73.3396 129 73C128.864 72.5925 129.136 72.4075 129 72C128.864 71.5246 129.068 71.3396 129 71C128.932 70.5925 128.136 69.6113 128 69C127.932 68.3208 128.068 68.4075 128 68C128 67.5925 128.068 66.815 128 66C127.932 65.185 128.068 64.4075 128 64C128 63.5925 128.068 63.0188 128 62C127.932 60.9812 128 60.4075 128 60C127.66 54.0912 126.176 50.1734 124 48C121.892 45.7587 117.985 44 112 44H95V74H82V2ZM95 12V35H112C114.448 35 116.3 34.2717 118 34C119.7 33.7283 121.3 33.6792 123 33C124.768 32.2529 126.116 30.63 127 29C127.952 27.37 128 25.513 128 23C128 20.6908 127.816 19.4942 127 18C126.184 16.4379 124.564 14.7471 123 14C121.504 13.2529 120.632 13.2717 119 13C117.436 12.7283 115.176 12 113 12H95Z" fill="black"/>
<path d="M216 2V12H177V32H214V42H177V63H217V74H164V2H216Z" fill="black"/>
<path d="M230 2H244L262 59L281 2H294L269 74H255L230 2Z" fill="black"/>
<path d="M370 2V74H357L323 21V74H311V2H324L358 55V2H370Z" fill="black"/>
<path d="M426 0C436.269 0 444.607 3.93655 451 11C457.461 17.9955 461 26.7256 461 38C461 49.2744 457.461 58.9366 451 66C444.539 72.9955 436.337 76 426 76C415.595 76 407.461 72.9955 401 66C394.607 59.0045 391 49.3423 391 38C391 26.9973 394.743 18.1314 401 11C407.325 3.80071 415.187 0 426 0ZM426 11C419.335 11 414.012 13.042 410 18C405.988 22.8901 404 29.7819 404 38C404 46.4218 406.056 53.042 410 58C414.012 62.958 419.131 65 426 65C432.597 65 438.056 62.958 442 58C446.012 52.9741 448 46.286 448 38C448 29.714 446.012 22.8901 442 18C438.056 13.042 432.733 11 426 11Z" fill="black"/>
</svg>
