<svg width="35" height="35" viewBox="0 0 35 35" fill="none" xmlns="http://www.w3.org/2000/svg">
<path d="M12.3969 3.8693V1.54688V3.8693ZM6.2909 6.28565L4.64687 4.64344L6.2909 6.28565ZM6.2909 18.578L4.64687 20.2203L6.2909 18.578ZM18.5969 6.28565L20.241 4.64344L18.5969 6.28565ZM3.87188 12.3849H1.54688H3.87188ZM11.6219 11.6107L17.9941 31.3944L22.4719 26.9216L28.0691 32.5126L32.5469 28.0397L26.9497 22.4487L31.4275 17.9759L11.6219 11.6107Z" fill="white"/>
<path d="M12.3969 3.8693V1.54688M6.2909 6.28565L4.64687 4.64344M6.2909 18.578L4.64687 20.2203M18.5969 6.28565L20.241 4.64344M3.87188 12.3849H1.54688M11.6219 11.6107L17.9941 31.3944L22.4719 26.9216L28.0691 32.5126L32.5469 28.0397L26.9497 22.4487L31.4275 17.9759L11.6219 11.6107Z" stroke="white" stroke-width="3.1" stroke-linecap="round" stroke-linejoin="round"/>
</svg>
