<svg width="30" height="40" viewBox="0 0 30 40" fill="none" xmlns="http://www.w3.org/2000/svg">
<rect x="1" y="23" width="27" height="2" fill="black"/>
<path d="M14.6146 13.3327C12.0618 13.3327 9.63358 12.8859 7.7785 12.0753C7.36707 11.8938 6.88981 12.0908 6.71378 12.5156C6.53774 12.9388 6.72961 13.4287 7.14264 13.6085C9.19437 14.5053 11.8478 14.9993 14.6146 14.9993C15.0633 14.9993 15.4264 14.6266 15.4264 14.166C15.4264 13.7054 15.0633 13.3327 14.6146 13.3327Z" fill="white"/>
<path d="M14.6152 5.00266C15.163 5.00266 15.7005 5.02297 16.2253 5.06203C16.6629 5.10031 17.0617 4.75117 17.0934 4.29133C17.1259 3.83234 16.7897 3.43359 16.3426 3.40023C15.7797 3.35789 15.2026 3.33594 14.6151 3.33594C8.24201 3.33594 3.25 5.89859 3.25 9.1693C3.25 9.89601 3.48783 10.6 3.95794 11.2608C4.11647 11.4837 4.36381 11.6026 4.61435 11.6026C4.78003 11.6026 4.94807 11.5505 5.09237 11.4423C5.45387 11.1712 5.53394 10.6496 5.26917 10.2777C5.00675 9.90828 4.87357 9.53555 4.87357 9.1693C4.87364 7.19828 8.87476 5.00266 14.6152 5.00266Z" fill="white"/>
<path d="M19.9844 3.99673C19.5507 3.8779 19.1075 4.14892 18.995 4.59408C18.8824 5.03923 19.1425 5.49415 19.5769 5.6097C22.4799 6.38361 24.3556 7.77845 24.3556 9.16431C24.3556 9.62493 24.7187 9.99767 25.1675 9.99767C25.6162 9.99767 25.9793 9.62493 25.9793 9.16431C25.9792 6.92884 23.738 4.99689 19.9844 3.99673Z" fill="white"/>
<path d="M17.1305 9.81654C15.1866 10.1176 12.6188 10.024 11.0007 9.59115C10.5671 9.47068 10.1239 9.74169 10.0106 10.1876C9.89805 10.6328 10.1581 11.0885 10.5917 11.204C11.7015 11.5003 13.1309 11.6638 14.615 11.6638C15.587 11.6638 16.5137 11.5971 17.3715 11.4652C17.8147 11.3969 18.1207 10.972 18.0541 10.5172C17.9875 10.0623 17.5871 9.76037 17.1305 9.81654Z" fill="white"/>
<path d="M14.6142 6.66406C12.2383 6.66406 10.101 7.0807 9.03629 7.75047C8.65416 7.99133 8.53369 8.50406 8.76832 8.89633C9.0022 9.28773 9.50008 9.40906 9.88457 9.17141C10.5497 8.75313 12.27 8.33078 14.6142 8.33078C17.3104 8.33078 18.9887 8.87688 19.4311 9.22352C19.332 9.57508 19.4684 9.96492 19.7871 10.1651C19.9195 10.2489 20.0662 10.288 20.2105 10.288C20.484 10.288 20.7504 10.1463 20.9033 9.89C21.0397 9.66133 21.1087 9.41719 21.1087 9.16406C21.1086 6.73406 15.2786 6.66406 14.6142 6.66406Z" fill="white"/>
<path d="M14.6123 0C6.41824 0 0 4.02672 0 9.16664V30.8333C0 35.9733 6.41824 40 14.6123 40C22.8064 40 29.2247 35.9733 29.2247 30.8334V9.16664C29.2247 4.02672 22.8064 0 14.6123 0ZM27.6011 30.8334C27.6011 34.8991 21.653 38.3334 14.6123 38.3334C7.5717 38.3334 1.62357 34.8991 1.62357 30.8334V13.4184C4.0292 16.3605 8.88194 18.3333 14.6123 18.3333C17.1556 18.3333 19.6234 17.9288 21.8106 17.159L23.5666 24.3684C23.6571 24.742 23.9836 24.9999 24.353 24.9999C24.3753 24.9999 24.3974 24.9991 24.4196 24.9975C24.8152 24.9641 25.1299 24.6419 25.1624 24.2358L25.9116 15.004C26.5732 14.4998 27.1303 13.9506 27.601 13.3745V30.8334H27.6011ZM24.6718 13.8664C24.472 14.0088 24.3451 14.2342 24.3253 14.4824L23.952 19.0796L23.1656 15.852C23.1092 15.6184 22.9563 15.4216 22.7477 15.3116C22.632 15.2514 22.5051 15.2205 22.3783 15.2205C22.276 15.2205 22.173 15.24 22.0763 15.2807C19.8747 16.1873 17.2935 16.6666 14.6123 16.6666C7.57177 16.6666 1.62357 13.2324 1.62357 9.16664C1.62357 5.10086 7.5717 1.66664 14.6123 1.66664C21.653 1.66664 27.6011 5.10086 27.6011 9.16664C27.6011 10.8529 26.5609 12.5228 24.6718 13.8664Z" fill="white"/>
<path d="M18.6712 31.6641C18.2225 31.6641 17.8594 32.0368 17.8594 32.4974V34.1641C17.8594 34.6247 18.2225 34.9974 18.6712 34.9974C19.1199 34.9974 19.483 34.6247 19.483 34.1641V32.4974C19.483 32.0368 19.1199 31.6641 18.6712 31.6641Z" fill="white"/>
<path d="M18.6712 21.6641C18.2225 21.6641 17.8594 22.0368 17.8594 22.4974V29.1641C17.8594 29.6247 18.2225 29.9974 18.6712 29.9974C19.1199 29.9974 19.483 29.6247 19.483 29.1641V22.4974C19.483 22.0368 19.1199 21.6641 18.6712 21.6641Z" fill="white"/>
<path d="M12.179 26.6641C11.7303 26.6641 11.3672 27.0368 11.3672 27.4974V34.1641C11.3672 34.6247 11.7303 34.9974 12.179 34.9974C12.6277 34.9974 12.9908 34.6247 12.9908 34.1641V27.4974C12.9908 27.0368 12.6277 26.6641 12.179 26.6641Z" fill="white"/>
<path d="M12.179 21.6641C11.7303 21.6641 11.3672 22.0368 11.3672 22.4974V24.1641C11.3672 24.6247 11.7303 24.9974 12.179 24.9974C12.6277 24.9974 12.9908 24.6247 12.9908 24.1641V22.4974C12.9908 22.0368 12.6277 21.6641 12.179 21.6641Z" fill="white"/>
<path d="M5.68682 30C5.2381 30 4.875 30.3727 4.875 30.8334V34.1667C4.875 34.6273 5.2381 35.0001 5.68682 35.0001C6.13554 35.0001 6.49864 34.6273 6.49864 34.1667V30.8334C6.49857 30.3727 6.13554 30 5.68682 30Z" fill="white"/>
<path d="M5.68682 20C5.2381 20 4.875 20.3727 4.875 20.8334V24.1667C4.875 24.6273 5.2381 25.0001 5.68682 25.0001C6.13554 25.0001 6.49864 24.6273 6.49864 24.1667V20.8334C6.49857 20.3727 6.13554 20 5.68682 20Z" fill="white"/>
</svg>
